<svg width="24" height="24" xmlns="http://www.w3.org/2000/svg">
    <path d="M16.723 15.5c3.014 0 5.277 1.558 5.277 3.692v.866C22 21.121 21.2 22 20.187 22l-16.375-.003C2.8 21.997 2 21.117 2 20.055v-.865c0-2.076 2.44-3.69 5.274-3.69.312 0 .673.039 1.12.111.148.024.3.05.489.085l.594.11a13.785 13.785 0 0 1 1.583.382l.158.048c.35.104.565.147.781.147.205 0 .507-.066 1.06-.224l.09-.026c.313-.09.392-.111.533-.148 1.13-.298 2.203-.485 3.041-.485zm0 1c-.734 0-1.733.174-2.787.452-.131.034-.207.056-.511.143l-.092.026c-.65.185-1 .262-1.334.262-.336 0-.631-.059-1.066-.189l-.164-.049-.19-.057a12.773 12.773 0 0 0-1.472-.333l-.172-.032-.233-.043c-.182-.033-.328-.06-.468-.082a6.259 6.259 0 0 0-.96-.098C4.927 16.5 3 17.775 3 19.19v.865c0 .53.375.942.812.942L20.187 21c.438 0 .813-.411.813-.942v-.866c0-1.485-1.753-2.692-4.277-2.692zM11.995 2c2.684 0 5.01 2.139 4.6 4.66l-.515 4.28c-.318 2.089-1.956 3.499-4.085 3.499-2.127 0-3.76-1.41-4.08-3.515l-.51-4.244C6.99 4.14 9.312 2 11.995 2zm0 1c-2.117 0-3.908 1.65-3.6 3.54l.51 4.249c.245 1.603 1.458 2.65 3.09 2.65 1.634 0 2.853-1.049 3.095-2.635l.516-4.284C15.909 4.65 14.114 3 11.996 3z" fill="#137E84" fill-rule="evenodd"/>
</svg>
