<svg width="24" height="24" xmlns="http://www.w3.org/2000/svg">
    <path d="M14.003 2C15.106 2 16 2.894 16 3.998V5h2.466l.034-.003.034.001L19.5 5a.5.5 0 1 1 0 1H19v12.024a3.973 3.973 0 0 1-3.775 3.968l-.198.005H8.973A3.973 3.973 0 0 1 5 18.024V6h-.5a.5.5 0 0 1-.492-.41L4 5.5a.5.5 0 0 1 .5-.5h.966l.034-.003.034.001L8 5V3.998c0-1.054.814-1.916 1.848-1.993L9.997 2zM18 6H6v12.024a2.973 2.973 0 0 0 2.798 2.968l.175.005h6.054A2.973 2.973 0 0 0 18 18.024V6zM8.5 8a.5.5 0 0 1 .5.5v10a.5.5 0 1 1-1 0v-10a.5.5 0 0 1 .5-.5zM12 8a.5.5 0 0 1 .5.5v10a.5.5 0 1 1-1 0v-10A.5.5 0 0 1 12 8zm3.5 0a.5.5 0 0 1 .5.5v10a.5.5 0 1 1-1 0v-10a.5.5 0 0 1 .5-.5zm-1.497-5H9.997A.997.997 0 0 0 9 3.998V5h6V3.998a.997.997 0 0 0-.88-.991L14.002 3z" fill="#FFF" fill-rule="evenodd"/>
</svg>
