<svg width="22" height="18" viewBox="0 0 22 18" xmlns="http://www.w3.org/2000/svg">
    <path d="M17.22 0C19.846 0 22 1.926 22 4.335v8.891c0 2.428-2.17 4.37-4.82 4.37h-.067a.552.552 0 0 1-.108.002l-12.186-.001C2.171 17.597 0 15.654 0 13.227V4.334C0 1.926 2.153 0 4.78 0zM7.12 4.728 1.1 11.752v1.474c0 1.732 1.544 3.172 3.514 3.266l.205.005 11.129-.001L7.121 4.728zM17.22 1.1H4.781C2.735 1.1 1.1 2.563 1.1 4.335v5.727l5.632-6.57a.55.55 0 0 1 .789-.049l.069.077 9.73 12.974c2.001-.064 3.58-1.517 3.58-3.268v-8.89c0-1.773-1.635-3.236-3.68-3.236zM15.95 3.3a2.75 2.75 0 1 1-.002 5.501A2.75 2.75 0 0 1 15.95 3.3zm0 1.1a1.65 1.65 0 1 0 0 3.3 1.65 1.65 0 0 0 0-3.3z" fill="#EC0000" fill-rule="evenodd"/>
</svg>
